# xmcd
#
# Track frame offsets:
#	150
#	23370
#	54177
#	82205
#	132962
#	172797
#	187160
#	214895
#	234272
#	260825
#	294560
#
# Disc length: 4429 seconds
#
# Revision: 1
# Processed by: cddbd v1.4PL0 Copyright (c) Steve Scherf et al.
# Submitted via: audiograbber 1.82.01
#
DISCID=97114b0b
DTITLE=Wadih El Safi - idik El Ghali
DYEAR=1900
DGENRE=
TTITLE0=idak El Ghali
TTITLE1=Ba3itlak Salami
TTITLE2=Nater Habibi
TTITLE3=Chou 3ad Baddi Fik
TTITLE4=Soret Mitlak Bay
TTITLE5=Al yadi el Yadi
TTITLE6=Rej3et Wahdi
TTITLE7=Ya Albi Henn 3layha
TTITLE8=Min Metlak Ya Habib el Aleb
TTITLE9=Warde Bi Hawd El Dar
TTITLE10=Kermal Albi Ya Ouyouni
EXTD=
EXTT0=
EXTT1=
EXTT2=
EXTT3=
EXTT4=
EXTT5=
EXTT6=
EXTT7=
EXTT8=
EXTT9=
EXTT10=
PLAYORDER=
